<?xml version="1.0" standalone="no"?>
<!DOCTYPE svg PUBLIC "-//W3C//DTD SVG 20010904//EN"
 "http://www.w3.org/TR/2001/REC-SVG-20010904/DTD/svg10.dtd">
<svg version="1.0" xmlns="http://www.w3.org/2000/svg"
 width="700.000000pt" height="700.000000pt" viewBox="0 0 700.000000 700.000000"
 preserveAspectRatio="xMidYMid meet">
<metadata>
Created by potrace 1.11, written by Peter Selinger 2001-2013
</metadata>
<g transform="translate(0.000000,700.000000) scale(0.100000,-0.100000)"
fill="#000000" stroke="none">
<path d="M3275 6293 c-440 -50 -719 -130 -1053 -299 -675 -343 -1182 -938
-1416 -1662 -29 -91 -74 -269 -91 -361 -47 -262 -54 -651 -14 -901 16 -105 19
-121 39 -210 57 -265 164 -543 310 -805 94 -169 279 -412 441 -576 153 -155
241 -230 430 -362 276 -194 703 -374 1024 -431 17 -3 41 -8 55 -11 14 -3 41
-8 60 -10 19 -3 51 -8 70 -11 115 -19 512 -25 650 -10 67 7 314 47 365 59 198
47 408 123 600 219 158 78 171 85 310 176 226 148 495 390 635 572 164 212
246 341 344 537 248 497 337 1035 270 1620 -31 271 -138 622 -271 888 -82 164
-202 360 -274 449 -5 6 -39 49 -76 96 -79 100 -316 339 -398 401 -351 268
-600 402 -955 513 -63 20 -124 38 -135 40 -11 3 -60 13 -110 25 -49 11 -110
22 -135 25 -25 3 -61 8 -80 10 -19 3 -53 9 -75 12 -44 6 -472 12 -520 7z"/>
</g>
</svg>
