<?xml version="1.0" encoding="utf-8"?>
<!-- Generator: Adobe Illustrator 21.0.2, SVG Export Plug-In . SVG Version: 6.00 Build 0)  -->
<svg version="1.1" id="Layer_1" xmlns="http://www.w3.org/2000/svg" xmlns:xlink="http://www.w3.org/1999/xlink" x="0px" y="0px"
	 viewBox="0 0 193 167" style="enable-background:new 0 0 193 167;" xml:space="preserve">
<style type="text/css">
	.st0{fill:none;}
	.st1{fill:#F5F6F8;}
	.st2{fill:#EFF1F7;}
	.st3{fill:#FFFFFF;}
	.st4{display:none;opacity:1.000000e-02;fill:#416ADB;}
	.st5{display:none;}
	.st6{display:inline;}
	.st7{fill:#416ADB;}
	.st8{display:inline;opacity:0.15;}
	.st9{display:none;fill:#416ADB;}
	.st10{display:none;opacity:0.15;fill:#416ADB;}
	.st11{opacity:0.15;fill:#416ADB;}
	.st12{opacity:0.5;fill:#416ADB;}
</style>
<g id="Rectangle_52" transform="translate(192.667 466.805)">
	<g>
		<rect x="-187.7" y="-461.8" class="st0" width="154" height="157"/>
	</g>
	<g>
		<path class="st1" d="M-31.2-299.8h-159c-1.4,0-2.5-1.1-2.5-2.5v-162c0-1.4,1.1-2.5,2.5-2.5h159c1.4,0,2.5,1.1,2.5,2.5v162
			C-28.7-300.9-29.8-299.8-31.2-299.8z M-187.7-304.8h154v-157h-154V-304.8z"/>
	</g>
</g>
<g id="Ellipse_46">
	<circle class="st2" cx="19" cy="17.5" r="7.5"/>
</g>
<g id="Line_1">
	<path class="st2" d="M74.9,21.8H39.8c-2.2,0-4-1.8-4-4s1.8-4,4-4h35.1c2.2,0,4,1.8,4,4S77.1,21.8,74.9,21.8z"/>
</g>
<g id="Line_2">
	<path class="st1" d="M70.1,69.8H39.8c-1.4,0-2.5-1.1-2.5-2.5s1.1-2.5,2.5-2.5h30.3c1.4,0,2.5,1.1,2.5,2.5S71.5,69.8,70.1,69.8z"/>
</g>
<g id="Path_31">
	<path class="st1" d="M19,93.2c-0.8,0-1.5-0.7-1.5-1.5V28c0-0.8,0.7-1.5,1.5-1.5s1.5,0.7,1.5,1.5v63.7C20.5,92.5,19.8,93.2,19,93.2z
		"/>
</g>
<g id="Ellipse_47">
	<ellipse class="st2" cx="19" cy="103" rx="7.5" ry="7.5"/>
</g>
<g id="Path_32">
	<path class="st1" d="M19,158.1c-0.8,0-1.5-0.7-1.5-1.5v-41.6c0-0.8,0.7-1.5,1.5-1.5s1.5,0.7,1.5,1.5v41.6
		C20.5,157.5,19.8,158.1,19,158.1z"/>
</g>
<g id="Rectangle_50" transform="translate(223.667 489.805)">
	<g>
		<path class="st1" d="M-184.7-461.8h146c1.7,0,3,1.3,3,3v23c0,1.7-1.3,3-3,3h-146c-1.7,0-3-1.3-3-3v-23
			C-187.7-460.5-186.3-461.8-184.7-461.8z"/>
	</g>
	<g>
		<path class="st3" d="M-38.7-427.8h-146c-4.4,0-8-3.6-8-8v-23c0-4.4,3.6-8,8-8h146c4.4,0,8,3.6,8,8v23
			C-30.7-431.4-34.3-427.8-38.7-427.8z M-184.7-461.8c-1.7,0-3,1.3-3,3v23c0,1.7,1.3,3,3,3h146c1.7,0,3-1.3,3-3v-23c0-1.7-1.3-3-3-3
			H-184.7z"/>
	</g>
</g>
<g id="Line_3">
	<path class="st2" d="M74.9,107.4H39.8c-2.2,0-4-1.8-4-4s1.8-4,4-4h35.1c2.2,0,4,1.8,4,4S77.1,107.4,74.9,107.4z"/>
</g>
<g id="Line_4">
	<path class="st1" d="M70.1,155.4H39.8c-1.4,0-2.5-1.1-2.5-2.5s1.1-2.5,2.5-2.5h30.3c1.4,0,2.5,1.1,2.5,2.5S71.5,155.4,70.1,155.4z"
		/>
</g>
<g id="Rectangle_51" transform="translate(223.667 574.805)">
	<g>
		<path class="st1" d="M-184.7-461.8h146c1.7,0,3,1.3,3,3v24c0,1.7-1.3,3-3,3h-146c-1.7,0-3-1.3-3-3v-24
			C-187.7-460.5-186.3-461.8-184.7-461.8z"/>
	</g>
	<g>
		<path class="st3" d="M-38.7-426.8h-146c-4.4,0-8-3.6-8-8v-24c0-4.4,3.6-8,8-8h146c4.4,0,8,3.6,8,8v24
			C-30.7-430.4-34.3-426.8-38.7-426.8z M-184.7-461.8c-1.7,0-3,1.3-3,3v24c0,1.7,1.3,3,3,3h146c1.7,0,3-1.3,3-3v-24c0-1.7-1.3-3-3-3
			H-184.7z"/>
	</g>
</g>
<rect class="st4" width="193" height="167"/>
<g class="st5">
	<g class="st6">
		<g>
			<path class="st7" d="M125.7,84.1c0,15.9-12.9,28.9-28.9,28.9S68,100.1,68,84.1c0-15.9,12.9-28.9,28.9-28.9S125.7,68.2,125.7,84.1
				z M96.9,90c-3,0-5.4,2.4-5.4,5.4s2.4,5.4,5.4,5.4s5.4-2.4,5.4-5.4S99.8,90,96.9,90z M91.8,70.7l0.9,15.8c0,0.7,0.7,1.3,1.4,1.3
				h5.7c0.7,0,1.4-0.6,1.4-1.3l0.9-15.8c0-0.8-0.6-1.5-1.4-1.5h-7.4C92.4,69.2,91.7,69.9,91.8,70.7L91.8,70.7z"/>
		</g>
	</g>
	<g class="st8">
		<g>
			<path class="st7" d="M128,86.4c0,16-12.9,28.9-28.9,28.9s-28.9-12.9-28.9-28.9c0-15.9,12.9-28.9,28.9-28.9S128,70.4,128,86.4z
				 M99.1,92.2c-3,0-5.4,2.4-5.4,5.4s2.4,5.4,5.4,5.4s5.4-2.4,5.4-5.4S102.1,92.2,99.1,92.2z M94,73l0.9,15.8c0,0.7,0.7,1.3,1.4,1.3
				h5.7c0.7,0,1.4-0.6,1.4-1.3l0.9-15.8c0-0.8-0.6-1.5-1.4-1.5h-7.4C94.6,71.5,94,72.2,94,73L94,73z"/>
		</g>
	</g>
</g>
<g class="st5">
	<g class="st6">
		<g>
			<path class="st7" d="M125.1,105.4l-11.3-11.3c-0.5-0.5-1.2-0.8-1.9-0.8h-1.8c3.1-4,5-9,5-14.5c0-13-10.5-23.5-23.5-23.5
				S68,66,68,78.9s10.5,23.5,23.5,23.5c5.5,0,10.5-1.9,14.5-5v1.8c0,0.7,0.3,1.4,0.8,1.9l11.3,11.3c1.1,1.1,2.8,1.1,3.8,0l3.2-3.2
				C126.1,108.2,126.1,106.5,125.1,105.4z M91.5,93.4c-8,0-14.5-6.5-14.5-14.5c0-8,6.5-14.5,14.5-14.5c8,0,14.5,6.5,14.5,14.5
				C106,86.9,99.5,93.4,91.5,93.4z"/>
		</g>
	</g>
	<g class="st8">
		<g>
			<path class="st7" d="M127.2,107.6L116,96.3c-0.5-0.5-1.2-0.8-1.9-0.8h-1.8c3.1-4,5-9,5-14.5c0-13-10.5-23.5-23.5-23.5
				S70.2,68.1,70.2,81.1s10.5,23.5,23.5,23.5c5.5,0,10.5-1.9,14.5-5v1.8c0,0.7,0.3,1.4,0.8,1.9l11.3,11.3c1.1,1.1,2.8,1.1,3.8,0
				l3.2-3.2C128.3,110.4,128.3,108.7,127.2,107.6z M93.7,95.6c-8,0-14.5-6.5-14.5-14.5c0-8,6.5-14.5,14.5-14.5
				c8,0,14.5,6.5,14.5,14.5C108.2,89.1,101.7,95.6,93.7,95.6z"/>
		</g>
	</g>
</g>
<g class="st5">
	<g class="st6">
		<g>
			<path class="st7" d="M96.5,53.9c-9.2,0-16.6,7.5-16.6,16.6c0,1.5,1.2,2.8,2.8,2.8s2.8-1.2,2.8-2.8c0-6.1,5-11.1,11.1-11.1
				c1.5,0,2.8-1.2,2.8-2.8S98,53.9,96.5,53.9z M82.7,119.6c0,0.5,0.2,1.1,0.5,1.5l4.2,6.4c0.5,0.8,1.4,1.2,2.3,1.2h13.7
				c0.9,0,1.8-0.5,2.3-1.2l4.2-6.4c0.3-0.5,0.5-1,0.5-1.5l0-7.5H82.6L82.7,119.6z M96.5,40.1C78.8,40.1,66,54.5,66,70.6
				c0,7.7,2.8,14.7,7.5,20.1c2.9,3.3,7.4,10.2,9.1,16v0H91v0c0-0.8-0.1-1.6-0.4-2.4c-1-3.1-4-11.2-10.8-19
				c-3.6-4.1-5.5-9.2-5.5-14.6c0-12.8,10.3-22.2,22.2-22.2c12.2,0,22.2,9.9,22.2,22.2c0,5.4-1.9,10.5-5.5,14.6
				c-6.8,7.7-9.8,15.8-10.8,19c-0.3,0.8-0.4,1.6-0.4,2.5v0h8.3v0c1.7-5.8,6.2-12.7,9.1-16c4.7-5.4,7.5-12.4,7.5-20.1
				C127,53.7,113.3,40.1,96.5,40.1z"/>
		</g>
	</g>
	<g class="st8">
		<g>
			<path class="st7" d="M99.5,57c-9.2,0-16.6,7.5-16.6,16.6c0,1.5,1.2,2.8,2.8,2.8s2.8-1.2,2.8-2.8c0-6.1,5-11.1,11.1-11.1
				c1.5,0,2.8-1.2,2.8-2.8S101,57,99.5,57z M85.7,122.6c0,0.5,0.2,1.1,0.5,1.5l4.2,6.4c0.5,0.8,1.4,1.2,2.3,1.2h13.7
				c0.9,0,1.8-0.5,2.3-1.2l4.2-6.4c0.3-0.5,0.5-1,0.5-1.5l0-7.5H85.6L85.7,122.6z M99.5,43.1C81.8,43.1,69,57.5,69,73.6
				c0,7.7,2.8,14.7,7.5,20.1c2.9,3.3,7.4,10.2,9.1,16v0H94v0c0-0.8-0.1-1.6-0.4-2.4c-1-3.1-4-11.2-10.8-19
				c-3.6-4.1-5.5-9.2-5.5-14.6c0-12.8,10.3-22.2,22.2-22.2c12.2,0,22.2,9.9,22.2,22.2c0,5.4-1.9,10.5-5.5,14.6
				c-6.8,7.7-9.8,15.8-10.8,19c-0.3,0.8-0.4,1.6-0.4,2.5v0h8.3v0c1.7-5.8,6.2-12.7,9.1-16c4.7-5.4,7.5-12.4,7.5-20.1
				C130,56.7,116.3,43.1,99.5,43.1z"/>
		</g>
	</g>
</g>
<path class="st9" d="M96.8,53c-17.3,0-31.3,14-31.3,31.3s14,31.3,31.3,31.3s31.3-14,31.3-31.3S114.1,53,96.8,53z M114.9,87.8
	c0,0.8-0.7,1.5-1.5,1.5h-11.6v11.6c0,0.8-0.7,1.5-1.5,1.5h-7.1c-0.8,0-1.5-0.7-1.5-1.5V89.3H80.1c-0.8,0-1.5-0.7-1.5-1.5v-7.1
	c0-0.8,0.7-1.5,1.5-1.5h11.6V67.6c0-0.8,0.7-1.5,1.5-1.5h7.1c0.8,0,1.5,0.7,1.5,1.5v11.6h11.6c0.8,0,1.5,0.7,1.5,1.5V87.8z"/>
<path class="st10" d="M99.2,55.4c-17.3,0-31.3,14-31.3,31.3s14,31.3,31.3,31.3s31.3-14,31.3-31.3S116.5,55.4,99.2,55.4z M117.4,90.2
	c0,0.8-0.7,1.5-1.5,1.5h-11.6v11.6c0,0.8-0.7,1.5-1.5,1.5h-7.1c-0.8,0-1.5-0.7-1.5-1.5V91.8H82.6c-0.8,0-1.5-0.7-1.5-1.5v-7.1
	c0-0.8,0.7-1.5,1.5-1.5h11.6V70.1c0-0.8,0.7-1.5,1.5-1.5h7.1c0.8,0,1.5,0.7,1.5,1.5v11.6h11.6c0.8,0,1.5,0.7,1.5,1.5V90.2z"/>
<g>
	<rect x="-137.5" y="103.4" class="st7" width="50" height="9.2"/>
	<rect x="-132.9" y="45.9" class="st7" width="15.4" height="48.9"/>
	<rect x="-134" y="106.4" class="st11" width="50" height="9.2"/>
	<rect x="-129.4" y="48.9" class="st11" width="15.4" height="48.9"/>
	<rect x="-104.8" y="72.8" class="st11" width="15.4" height="25"/>
	<rect x="-108.4" y="69.8" class="st3" width="15.4" height="25"/>
	<rect x="-108.4" y="69.8" class="st12" width="15.4" height="25"/>
</g>
</svg>
